<?xml version="1.0" encoding="utf-8"?>
<!-- Generator: Adobe Illustrator 17.1.0, SVG Export Plug-In . SVG Version: 6.00 Build 0)  -->
<!DOCTYPE svg PUBLIC "-//W3C//DTD SVG 1.1//EN" "http://www.w3.org/Graphics/SVG/1.1/DTD/svg11.dtd">
<svg version="1.1" id="Layer_1" xmlns="http://www.w3.org/2000/svg" xmlns:xlink="http://www.w3.org/1999/xlink" x="0px" y="0px"
	 viewBox="0 0 105.065 106.264" enable-background="new 0 0 105.065 106.264" xml:space="preserve">
<polygon fill="#AE1F23" points="105.065,38.92 65.188,3.564 0,20.794 33.964,61.038 "/>
<linearGradient id="SVGID_1_" gradientUnits="userSpaceOnUse" x1="33.8052" y1="72.5518" x2="105.065" y2="72.5518">
	<stop  offset="0" style="stop-color:#941A1D"/>
	<stop  offset="0.504" style="stop-color:#ED1C24"/>
</linearGradient>
<polygon fill="url(#SVGID_1_)" points="33.805,60.958 33.805,106.184 105.065,84.333 105.065,38.92 "/>
<polygon fill="#ED1F24" points="0,20.557 33.821,60.912 33.821,106.264 0,61.101 "/>
<path fill="#ED1F24" d="M29.594,42.667"/>
<linearGradient id="SVGID_2_" gradientUnits="userSpaceOnUse" x1="30.1303" y1="43.1728" x2="57.0337" y2="43.1728">
	<stop  offset="0.6207" style="stop-color:#ED1C24"/>
	<stop  offset="0.7086" style="stop-color:#DB1D24"/>
	<stop  offset="0.857" style="stop-color:#B91D22"/>
	<stop  offset="1" style="stop-color:#941A1D"/>
</linearGradient>
<path fill="url(#SVGID_2_)" d="M30.13,34.273v12.801c0,0,10.145,11.245,26.903,0V34.273C57.034,34.273,44.119,48.544,30.13,34.273z"
	/>
<linearGradient id="SVGID_3_" gradientUnits="userSpaceOnUse" x1="69.3324" y1="32.6687" x2="94.5463" y2="32.6687">
	<stop  offset="0.6207" style="stop-color:#ED1C24"/>
	<stop  offset="0.7086" style="stop-color:#DB1D24"/>
	<stop  offset="0.857" style="stop-color:#B91D22"/>
	<stop  offset="1" style="stop-color:#941A1D"/>
</linearGradient>
<path fill="url(#SVGID_3_)" d="M69.332,24.269v11.783c0,0,8.455,10.916,25.214,0.539V24.269
	C94.546,24.269,83.321,37.438,69.332,24.269z"/>
<linearGradient id="SVGID_4_" gradientUnits="userSpaceOnUse" x1="49.8995" y1="15.564" x2="72.4961" y2="15.564">
	<stop  offset="0.6207" style="stop-color:#ED1C24"/>
	<stop  offset="0.7086" style="stop-color:#DB1D24"/>
	<stop  offset="0.857" style="stop-color:#B91D22"/>
	<stop  offset="1" style="stop-color:#941A1D"/>
</linearGradient>
<path fill="url(#SVGID_4_)" d="M49.9,7.683v11.056c0,0,7.578,10.243,22.597,0.506V7.683C72.496,7.683,62.436,20.039,49.9,7.683z"/>
<linearGradient id="SVGID_5_" gradientUnits="userSpaceOnUse" x1="12.8352" y1="24.0114" x2="37.5126" y2="24.0114">
	<stop  offset="0.6207" style="stop-color:#ED1C24"/>
	<stop  offset="0.7086" style="stop-color:#DB1D24"/>
	<stop  offset="0.857" style="stop-color:#B91D22"/>
	<stop  offset="1" style="stop-color:#941A1D"/>
</linearGradient>
<path fill="url(#SVGID_5_)" d="M12.835,15.354v12.145c0,0,8.275,11.252,24.677,0.556V15.354
	C37.513,15.354,26.526,28.927,12.835,15.354z"/>
<ellipse fill="#CC2127" cx="43.582" cy="34.273" rx="13.452" ry="7.607"/>
<ellipse fill="#CC2127" cx="81.939" cy="24.269" rx="12.607" ry="7.019"/>
<ellipse fill="#CC2127" cx="25.174" cy="15.046" rx="12.339" ry="6.432"/>
<ellipse fill="#CC2127" cx="61.185" cy="6.586" rx="11.454" ry="6.586"/>
<g>
	<path d="M52.634,71.715c0.806-0.257,1.482-0.237,2.03,0.058c0.548,0.296,0.928,0.777,1.14,1.442
		c0.316,0.991,0.23,2.026-0.258,3.103c-0.529,1.185-1.394,1.968-2.594,2.351l-2.573,0.82c-2.727,0.869-4.562-0.177-5.507-3.139
		c-0.398-1.25-0.65-2.961-0.758-5.135c0.024,0.313-0.082-2.124-0.318-7.311c-0.043-1.082,0.252-2.055,0.883-2.917
		c0.586-0.772,1.308-1.295,2.165-1.568c0.875-0.279,1.629-0.226,2.261,0.158c0.706,0.437,1.08,1.196,1.123,2.278l0.326,6.981
		c0.067,1.811,0.212,2.945,0.434,3.404C51.074,72.213,51.622,72.038,52.634,71.715z M52.869,77.28
		c0.723-0.23,1.24-0.687,1.554-1.369c0.313-0.681,0.376-1.32,0.186-1.916c-0.288-0.903-0.921-1.199-1.898-0.887l-1.312,0.418
		c-0.48,0.153-0.823,0.205-1.027,0.157c-0.301-0.056-0.533-0.34-0.697-0.854c-0.207-0.651-0.347-1.806-0.419-3.464
		c0.012-0.023,0.015-0.043,0.01-0.061c0.001-0.114-0.021-0.626-0.065-1.538c-0.076-1.845-0.16-3.679-0.25-5.502
		c-0.018-0.221-0.056-0.417-0.11-0.589c-0.284-0.893-0.925-1.181-1.921-0.863c-0.516,0.165-0.947,0.472-1.295,0.923
		c-0.384,0.519-0.566,1.105-0.547,1.76l0.313,7.125c0.095,2.174,0.328,3.843,0.698,5.006c0.736,2.308,2.137,3.134,4.2,2.476
		L52.869,77.28z"/>
	<path d="M64.416,67.96c0.807-0.257,1.482-0.237,2.03,0.059c0.548,0.295,0.928,0.776,1.14,1.442c0.316,0.991,0.23,2.025-0.258,3.103
		c-0.528,1.185-1.394,1.969-2.595,2.351l-2.571,0.82c-2.728,0.869-4.562-0.175-5.506-3.135c-0.397-1.248-0.657-3.069-0.777-5.461
		c-0.114-2.789,0.03-5.003,0.435-6.639c0.753-2.972,2.382-4.857,4.886-5.655l2.572-0.82c0.806-0.257,1.483-0.236,2.031,0.062
		c0.549,0.297,0.929,0.78,1.143,1.449c0.316,0.994,0.232,2.032-0.255,3.113c-0.528,1.189-1.393,1.974-2.593,2.357
		c0.806-0.257,1.483-0.237,2.031,0.059c0.547,0.296,0.927,0.776,1.14,1.443c0.315,0.99,0.229,2.024-0.259,3.102
		C66.481,66.794,65.616,67.577,64.416,67.96z M64.65,73.525c0.723-0.23,1.241-0.687,1.555-1.368c0.312-0.682,0.375-1.32,0.185-1.917
		c-0.288-0.903-0.921-1.199-1.898-0.887l-1.286,0.41c-0.497,0.158-0.846,0.222-1.044,0.191c-0.318-0.049-0.554-0.315-0.707-0.794
		c-0.099-0.309-0.175-0.729-0.231-1.259l0.01-0.06c-0.015-0.165,0.078-0.289,0.278-0.372l2.83-0.902
		c0.72-0.229,1.235-0.687,1.546-1.371c0.311-0.684,0.371-1.327,0.18-1.927c-0.29-0.909-0.924-1.208-1.901-0.896l-2.881,0.918
		c-0.194,0.043-0.29-0.021-0.288-0.192l0.01-0.06c-0.003-1.133,0.156-1.91,0.475-2.334c0.214-0.275,0.639-0.515,1.273-0.717
		l1.261-0.402c0.72-0.229,1.235-0.685,1.548-1.366c0.312-0.681,0.373-1.32,0.183-1.916c-0.288-0.903-0.922-1.199-1.901-0.886
		l-2.578,0.822c-1.771,0.564-2.967,1.86-3.59,3.885c-0.474,1.544-0.651,3.749-0.533,6.611c0.108,2.245,0.352,3.956,0.728,5.136
		c0.735,2.308,2.136,3.133,4.2,2.475L64.65,73.525z"/>
	<path d="M80.935,59.776c0.148,0.463,0.232,0.937,0.255,1.42l0.101,2.093c0.066,1.339-0.29,2.767-1.073,4.281
		c-1.022,1.951-2.493,3.232-4.414,3.844l-1.286,0.41c-2.727,0.87-4.562-0.179-5.509-3.146c-0.399-1.252-0.659-3.078-0.781-5.476
		c-0.117-2.797,0.026-5.014,0.429-6.655c0.751-2.979,2.379-4.867,4.883-5.665l1.286-0.41c1.715-0.546,3.112-0.52,4.191,0.081
		c0.808,0.461,1.362,1.162,1.663,2.105c0.098,0.309,0.151,0.594,0.159,0.855c0.07,1.527-0.524,2.803-1.784,3.828
		C79.937,57.799,80.564,58.61,80.935,59.776z M79.904,61.606c-0.006-0.432-0.063-0.82-0.173-1.164
		c-0.273-0.856-0.784-1.45-1.53-1.778c-0.68-0.294-1.396-0.321-2.151-0.08c-0.601,0.191-1.095,0.534-1.485,1.028
		c-0.391,0.495-0.573,1.079-0.547,1.753c0.021,0.184,0.056,0.353,0.105,0.507c0.258,0.809,0.795,1.16,1.61,1.051
		c0.159-0.031,0.272,0.055,0.339,0.262c-0.006-0.017,0.021,0.572,0.081,1.768c0.023,0.429-0.329,0.777-1.055,1.047
		c-0.618,0.141-1.038-0.144-1.264-0.852c-0.208-0.654-0.363-1.851-0.463-3.586c-0.1-2.209-0.012-3.682,0.265-4.416
		c0.199-0.5,0.65-0.863,1.354-1.087c0.412-0.131,0.72-0.172,0.925-0.121c0.383,0.726,0.977,0.96,1.783,0.703
		c0.531-0.169,0.981-0.507,1.35-1.012c0.368-0.504,0.536-1.073,0.505-1.705c-0.016-0.165-0.053-0.342-0.112-0.53
		c-0.219-0.687-0.625-1.189-1.219-1.511c-0.824-0.454-1.932-0.461-3.321-0.018l-1.286,0.41c-1.767,0.563-2.96,1.859-3.578,3.889
		c-0.47,1.548-0.644,3.757-0.522,6.627c0.112,2.25,0.357,3.967,0.734,5.15c0.738,2.315,2.136,3.145,4.194,2.489l1.286-0.41
		c1.646-0.525,2.849-1.645,3.605-3.359c0.492-1.12,0.717-2.108,0.67-2.963L79.904,61.606z"/>
	<path d="M94.07,49.241c0.399,1.252,0.651,3.08,0.756,5.483c0.135,2.792,0,5.007-0.403,6.647c-0.751,2.979-2.378,4.867-4.882,5.665
		l-1.286,0.41c-2.728,0.869-4.562-0.18-5.509-3.146c-0.398-1.252-0.66-3.077-0.781-5.476c-0.117-2.797,0.025-5.014,0.429-6.654
		c0.751-2.979,2.378-4.867,4.882-5.666l1.287-0.41C91.289,45.226,93.125,46.275,94.07,49.241z M93.042,61.754
		c0.471-1.548,0.636-3.754,0.498-6.62c-0.097-2.255-0.332-3.975-0.709-5.159c-0.738-2.315-2.137-3.145-4.194-2.488l-1.286,0.41
		c-1.767,0.562-2.96,1.859-3.578,3.889c-0.471,1.548-0.645,3.757-0.523,6.627c0.113,2.25,0.358,3.967,0.735,5.15
		c0.737,2.315,2.136,3.145,4.194,2.488l1.285-0.41C91.231,65.08,92.424,63.784,93.042,61.754z M89.25,52.789
		c0.209,0.652,0.352,1.844,0.432,3.575c0.09,1.88,0.046,3.197-0.129,3.952c-0.15,0.652-0.456,1.09-0.914,1.312
		c-0.508,0.066-0.865-0.225-1.072-0.877c-0.208-0.652-0.361-1.841-0.457-3.567c-0.072-1.885-0.021-3.205,0.154-3.959
		c0.151-0.653,0.455-1.09,0.914-1.312C88.685,51.846,89.042,52.138,89.25,52.789z"/>
	<path d="M57.902,79.684c0.555-0.177,1.067-0.166,1.537,0.033c0.471,0.198,0.792,0.568,0.965,1.109
		c0.071,0.225,0.111,0.466,0.121,0.725l0.502,10.74c0.047,0.828-0.174,1.575-0.659,2.238c-0.451,0.595-1.012,0.998-1.686,1.213
		c-0.541,0.172-1.044,0.166-1.51-0.02c-0.467-0.186-0.786-0.548-0.958-1.09c-0.076-0.237-0.121-0.492-0.135-0.764l-0.024-0.624
		c-0.321,0.175-0.649,0.28-0.985,0.315l0.045,0.618c0.032,0.832-0.194,1.58-0.682,2.243c-0.451,0.595-1.013,0.999-1.687,1.213
		c-0.542,0.173-1.045,0.167-1.512-0.019c-0.466-0.186-0.785-0.548-0.958-1.09c-0.075-0.237-0.12-0.492-0.135-0.764l-0.502-10.74
		c-0.029-0.82,0.2-1.562,0.687-2.225c0.472-0.615,1.038-1.028,1.698-1.238c1.068-0.341,1.846-0.044,2.333,0.891l0.774,1.541
		l0.611-1.983C56.114,80.798,56.833,80.025,57.902,79.684z M59.536,81.866c-0.007-0.158-0.03-0.303-0.073-0.435
		c-0.104-0.33-0.297-0.556-0.575-0.678c-0.279-0.122-0.583-0.131-0.913-0.025c-0.646,0.206-1.086,0.673-1.319,1.402l-1.339,4.351
		c0,0.043-0.029,0.067-0.086,0.071c-0.039,0.012-0.063,0.005-0.072-0.021l-1.71-3.379c-0.28-0.564-0.745-0.744-1.392-0.538
		c-0.396,0.126-0.735,0.383-1.019,0.771c-0.283,0.389-0.42,0.828-0.408,1.319l0.502,10.74c0.011,0.171,0.038,0.322,0.08,0.454
		c0.219,0.687,0.718,0.905,1.496,0.657c0.396-0.126,0.735-0.375,1.017-0.749s0.414-0.811,0.398-1.314l-0.117-2.512
		c0-0.045,0.01-0.085,0.027-0.121c0.031-0.039,0.062-0.034,0.092,0.014c0.281,0.565,0.752,0.742,1.41,0.532
		c0.646-0.206,1.084-0.673,1.316-1.401c0.001-0.044,0.023-0.065,0.067-0.065c0.026-0.008,0.043,0.024,0.052,0.094l0.097,2.518
		c0.012,0.171,0.039,0.322,0.081,0.455c0.219,0.686,0.718,0.905,1.496,0.657c0.396-0.126,0.734-0.375,1.016-0.749
		c0.28-0.372,0.406-0.809,0.378-1.309L59.536,81.866z"/>
	<path d="M70.882,79.296c0.307,0.963,0.5,2.37,0.581,4.219c0.103,2.147-0.001,3.852-0.311,5.113
		c-0.578,2.292-1.83,3.744-3.756,4.358l-0.99,0.315c-2.098,0.669-3.51-0.138-4.237-2.421c-0.307-0.963-0.508-2.367-0.602-4.212
		c-0.09-2.152,0.02-3.858,0.33-5.12c0.578-2.291,1.83-3.744,3.756-4.358l0.99-0.315C68.742,76.207,70.155,77.014,70.882,79.296z
		 M70.091,88.923c0.361-1.191,0.489-2.888,0.383-5.092c-0.074-1.735-0.256-3.058-0.546-3.969c-0.567-1.781-1.644-2.419-3.227-1.915
		l-0.989,0.315c-1.359,0.434-2.277,1.431-2.753,2.992c-0.361,1.191-0.495,2.891-0.401,5.099c0.086,1.731,0.273,3.052,0.564,3.962
		c0.567,1.781,1.644,2.419,3.227,1.915l0.989-0.315C68.698,91.482,69.615,90.485,70.091,88.923z M67.173,82.026
		c0.16,0.502,0.27,1.419,0.332,2.751c0.068,1.446,0.035,2.46-0.1,3.04c-0.116,0.502-0.351,0.839-0.703,1.009
		c-0.391,0.052-0.665-0.173-0.825-0.674c-0.159-0.502-0.276-1.416-0.351-2.745c-0.057-1.45-0.016-2.465,0.118-3.046
		c0.116-0.502,0.351-0.838,0.703-1.009C66.738,81.3,67.014,81.525,67.173,82.026z"/>
	<path d="M78.044,89.593l-3.107,0.99c-0.567,0.181-1.08,0.156-1.54-0.076c-0.458-0.231-0.774-0.617-0.946-1.158
		c-0.067-0.212-0.108-0.431-0.123-0.659l-0.502-10.74c-0.033-0.833,0.193-1.581,0.68-2.245c0.451-0.593,1.012-0.998,1.686-1.212
		c0.54-0.173,1.04-0.165,1.5,0.022c0.46,0.188,0.777,0.559,0.955,1.113c0.062,0.198,0.105,0.424,0.129,0.678
		c-0.017-0.823,0.215-1.558,0.691-2.205c0.441-0.576,0.992-0.969,1.652-1.18c0.54-0.172,1.044-0.166,1.51,0.02
		c0.467,0.187,0.787,0.556,0.965,1.11c0.071,0.225,0.114,0.472,0.127,0.744l0.252,5.37C82.243,85.529,80.934,88.672,78.044,89.593z
		 M80.995,80.586c-0.076-1.749-0.12-2.665-0.132-2.748l-0.131-2.728c-0.012-0.171-0.037-0.323-0.08-0.454
		c-0.219-0.687-0.708-0.908-1.469-0.666c-0.406,0.13-0.742,0.368-1.007,0.715c-0.292,0.399-0.424,0.849-0.394,1.35
		c0.08,1.661,0.124,2.571,0.131,2.728l0.109,2.729c0.086,1.683,0.013,2.802-0.218,3.358c-0.149,0.354-0.515,0.624-1.096,0.81
		c-0.319,0.102-0.493,0.018-0.52-0.25l-0.426-8.741c0.015-0.179,0.001-0.333-0.041-0.465c-0.218-0.684-0.716-0.902-1.495-0.654
		c-0.396,0.126-0.727,0.362-0.994,0.709c-0.294,0.399-0.434,0.851-0.418,1.355l0.521,10.734c0.002,0.145,0.022,0.276,0.061,0.395
		c0.104,0.33,0.295,0.563,0.572,0.701c0.275,0.138,0.579,0.153,0.908,0.048l3.128-0.997C80.222,87.809,81.218,85.166,80.995,80.586z
		"/>
	<path d="M83.114,72.323c0.45-0.593,1.011-0.998,1.685-1.212c0.541-0.172,1.045-0.166,1.51,0.02c0.467,0.187,0.786,0.55,0.959,1.091
		c0.075,0.237,0.113,0.494,0.114,0.77l0.502,10.74c0.046,0.829-0.174,1.575-0.66,2.238c-0.45,0.594-1.012,0.999-1.685,1.212
		c-0.541,0.173-1.045,0.167-1.511-0.02c-0.466-0.186-0.785-0.549-0.958-1.09c-0.075-0.237-0.12-0.492-0.135-0.764l-0.502-10.741
		C82.401,73.735,82.627,72.987,83.114,72.323z M86.392,73.306c0.002-0.175-0.018-0.329-0.061-0.46
		c-0.219-0.687-0.715-0.906-1.488-0.659c-0.395,0.125-0.724,0.361-0.988,0.708c-0.292,0.399-0.43,0.851-0.414,1.356l0.503,10.74
		c-0.001,0.174,0.021,0.328,0.062,0.458c0.218,0.685,0.715,0.902,1.494,0.653c0.396-0.126,0.734-0.375,1.015-0.748
		c0.281-0.373,0.408-0.81,0.379-1.309L86.392,73.306z"/>
	<path d="M94.992,78.74c0.619-0.197,1.141-0.183,1.562,0.045s0.714,0.598,0.877,1.11c0.243,0.762,0.177,1.558-0.199,2.387
		c-0.406,0.912-1.072,1.514-1.996,1.809l-1.979,0.631c-2.098,0.669-3.51-0.135-4.235-2.412c-0.307-0.96-0.505-2.361-0.599-4.202
		c-0.088-2.146,0.023-3.849,0.334-5.108c0.58-2.286,1.833-3.736,3.76-4.35l1.979-0.631c0.62-0.197,1.142-0.182,1.562,0.046
		c0.422,0.229,0.715,0.601,0.879,1.116c0.244,0.765,0.179,1.563-0.195,2.395c-0.406,0.915-1.071,1.519-1.994,1.813
		c0.619-0.198,1.141-0.182,1.562,0.045c0.421,0.228,0.714,0.598,0.877,1.11c0.243,0.762,0.177,1.558-0.198,2.387
		C96.581,77.843,95.916,78.446,94.992,78.74z M95.172,83.021c0.556-0.177,0.954-0.528,1.194-1.052
		c0.241-0.524,0.289-1.016,0.143-1.475c-0.221-0.695-0.707-0.922-1.459-0.682l-0.99,0.315c-0.383,0.122-0.65,0.171-0.804,0.146
		c-0.245-0.039-0.426-0.242-0.544-0.611c-0.075-0.238-0.135-0.56-0.178-0.969l0.008-0.046c-0.012-0.126,0.06-0.222,0.214-0.285
		l2.177-0.694c0.555-0.177,0.951-0.528,1.19-1.055c0.238-0.527,0.284-1.021,0.138-1.483c-0.223-0.699-0.711-0.929-1.463-0.689
		l-2.217,0.706c-0.148,0.034-0.223-0.016-0.221-0.147l0.007-0.046c-0.001-0.872,0.12-1.469,0.366-1.795
		c0.164-0.212,0.49-0.396,0.979-0.552l0.971-0.309c0.553-0.177,0.95-0.527,1.19-1.051c0.239-0.523,0.287-1.015,0.141-1.475
		c-0.222-0.694-0.709-0.921-1.462-0.681l-1.984,0.632c-1.362,0.435-2.283,1.431-2.762,2.989c-0.364,1.188-0.502,2.884-0.411,5.086
		c0.084,1.727,0.271,3.043,0.561,3.951c0.565,1.775,1.643,2.41,3.231,1.904L95.172,83.021z"/>
</g>
</svg>
