<?xml version="1.0" encoding="utf-8"?>
<!-- Generator: Adobe Illustrator 17.1.0, SVG Export Plug-In . SVG Version: 6.00 Build 0)  -->
<!DOCTYPE svg PUBLIC "-//W3C//DTD SVG 1.1//EN" "http://www.w3.org/Graphics/SVG/1.1/DTD/svg11.dtd">
<svg version="1.1" id="Layer_1" xmlns="http://www.w3.org/2000/svg" xmlns:xlink="http://www.w3.org/1999/xlink" x="0px" y="0px"
	 viewBox="0 86.5 612 619" enable-background="new 0 86.5 612 619" xml:space="preserve">
<polygon fill="#AE1F23" points="612,313.2 379.7,107.3 0,207.6 197.8,442.1 "/>
<linearGradient id="SVGID_1_" gradientUnits="userSpaceOnUse" x1="33.805" y1="719.448" x2="105.065" y2="719.448" gradientTransform="matrix(5.825 0 0 -5.825 0 4699.8804)">
	<stop  offset="0" style="stop-color:#941A1D"/>
	<stop  offset="0.504" style="stop-color:#ED1C24"/>
</linearGradient>
<polygon fill="url(#SVGID_1_)" points="196.9,441.6 196.9,705 612,577.7 612,313.2 "/>
<polygon fill="#ED1F24" points="0,206.3 197,441.3 197,705.5 0,442.4 "/>
<path fill="#ED1F24" d="M172.4,335"/>
<linearGradient id="SVGID_2_" gradientUnits="userSpaceOnUse" x1="30.13" y1="748.8276" x2="57.033" y2="748.8276" gradientTransform="matrix(5.825 0 0 -5.825 0 4699.8804)">
	<stop  offset="0.6207" style="stop-color:#ED1C24"/>
	<stop  offset="0.7086" style="stop-color:#DB1D24"/>
	<stop  offset="0.857" style="stop-color:#B91D22"/>
	<stop  offset="1" style="stop-color:#941A1D"/>
</linearGradient>
<path fill="url(#SVGID_2_)" d="M175.5,286.1v74.6c0,0,59.1,65.5,156.7,0v-74.6C332.2,286.1,257,369.3,175.5,286.1z"/>
<linearGradient id="SVGID_3_" gradientUnits="userSpaceOnUse" x1="69.332" y1="759.3318" x2="94.546" y2="759.3318" gradientTransform="matrix(5.825 0 0 -5.825 0 4699.8804)">
	<stop  offset="0.6207" style="stop-color:#ED1C24"/>
	<stop  offset="0.7086" style="stop-color:#DB1D24"/>
	<stop  offset="0.857" style="stop-color:#B91D22"/>
	<stop  offset="1" style="stop-color:#941A1D"/>
</linearGradient>
<path fill="url(#SVGID_3_)" d="M403.9,227.9v68.6c0,0,49.3,63.6,146.9,3.1v-71.8C550.7,227.9,485.3,304.6,403.9,227.9z"/>
<linearGradient id="SVGID_4_" gradientUnits="userSpaceOnUse" x1="49.9" y1="776.4359" x2="72.497" y2="776.4359" gradientTransform="matrix(5.825 0 0 -5.825 0 4699.8804)">
	<stop  offset="0.6207" style="stop-color:#ED1C24"/>
	<stop  offset="0.7086" style="stop-color:#DB1D24"/>
	<stop  offset="0.857" style="stop-color:#B91D22"/>
	<stop  offset="1" style="stop-color:#941A1D"/>
</linearGradient>
<path fill="url(#SVGID_4_)" d="M290.7,131.3v64.4c0,0,44.1,59.7,131.6,2.9v-67.3C422.3,131.3,363.7,203.2,290.7,131.3z"/>
<linearGradient id="SVGID_5_" gradientUnits="userSpaceOnUse" x1="12.835" y1="767.9886" x2="37.512" y2="767.9886" gradientTransform="matrix(5.825 0 0 -5.825 0 4699.8804)">
	<stop  offset="0.6207" style="stop-color:#ED1C24"/>
	<stop  offset="0.7086" style="stop-color:#DB1D24"/>
	<stop  offset="0.857" style="stop-color:#B91D22"/>
	<stop  offset="1" style="stop-color:#941A1D"/>
</linearGradient>
<path fill="url(#SVGID_5_)" d="M74.8,175.9v70.7c0,0,48.2,65.5,143.7,3.2v-74C218.5,175.9,154.5,255,74.8,175.9z"/>
<ellipse fill="#CC2127" cx="253.9" cy="286.1" rx="78.4" ry="44.3"/>
<ellipse fill="#CC2127" cx="477.3" cy="227.9" rx="73.4" ry="40.9"/>
<ellipse fill="#CC2127" cx="146.6" cy="174.2" rx="71.9" ry="37.5"/>
<ellipse fill="#CC2127" cx="356.4" cy="124.9" rx="66.7" ry="38.4"/>
<g>
	<path d="M259.3,504.9c2.5,8.4,1.7,17.2-2.2,26.2c-4.2,9.8-10.8,16-19.6,18.6l-5.4,1.6c-6.5,1.9-11.9,1.8-16.4-0.2
		c-3.9-1.8-6.5-4.8-7.7-9c-1.1-3.7-0.9-7.6,0.8-11.6c1.6-4,4.4-7.1,8.3-9.5c-4.3-2.4-7.3-6.5-9-12.1c-2.5-8.5-1.8-17.3,2.1-26.3
		c4.2-9.8,10.8-16,19.7-18.6l5.4-1.6c6.5-1.9,11.9-1.8,16.4,0.2c3.9,1.8,6.4,4.8,7.7,9c1.1,3.7,0.9,7.6-0.6,11.4
		c-1.7,4.1-4.5,7.3-8.4,9.6C254.6,495.1,257.6,499.2,259.3,504.9z M252.7,528.9c2.9-7.3,3.4-14.4,1.4-21.2c-1.2-4.2-3.4-7.3-6.4-9.3
		c-3-2-6.8-2.4-11.3-1.2c-2.7,0.8-4.4,1.1-5.3,0.8c-1.4-0.4-2.4-1.8-2.9-4.3c0.4-2.7,1.2-4.6,2.4-5.8c0.9-0.8,2.4-1.5,4.6-2.2
		c2.3-0.7,4.2-0.2,5.7,1.3c1.5,1.5,3.5,2,5.8,1.3c3-0.9,5.2-2.7,6.5-5.5c1.3-2.8,1.6-5.6,0.8-8.4c-0.9-3-2.8-5.2-5.8-6.4
		c-3.4-1.4-7.7-1.4-12.9,0.1l-5.4,1.6c-7.1,2.1-12.3,7.1-15.4,15c-2.9,7.3-3.4,14.4-1.4,21.2c1.2,4.2,3.3,7.3,6.2,9.2
		c3.1,2.1,6.9,2.6,11.4,1.3c2.7-0.8,4.4-1.1,5.3-0.8c1.4,0.4,2.4,1.8,2.9,4.3c-0.4,2.7-1.2,4.6-2.4,5.8c-0.9,0.8-2.5,1.6-5,2.3
		c-2.2,0.7-4,0.2-5.5-1.4c-1.4-1.6-3.3-2-5.8-1.3c-3,0.9-5.2,2.7-6.5,5.5c-1.3,2.8-1.6,5.6-0.8,8.4c0.9,3,2.8,5.1,5.8,6.4
		c3.4,1.4,7.7,1.4,12.9-0.1l5.4-1.6C244.4,541.8,249.5,536.8,252.7,528.9z"/>
	<path d="M315.2,459.2c1.5,5.3,2.4,12.9,2.6,22.9c0.3,11.6-0.5,20.9-2.3,27.7c-3.4,12.3-10.4,20.1-20.9,23.2l-5.4,1.6
		c-11.4,3.4-19-1.2-22.7-13.6c-1.5-5.3-2.5-12.9-2.7-22.9c-0.2-11.7,0.6-20.9,2.4-27.7c3.4-12.3,10.4-20.1,20.9-23.2l5.4-1.6
		C304,442.2,311.5,446.7,315.2,459.2z M309.7,511.2c2.1-6.4,3-15.6,2.7-27.5c-0.2-9.4-1-16.6-2.5-21.6c-2.9-9.7-8.6-13.3-17.2-10.8
		l-5.4,1.6c-7.4,2.2-12.5,7.5-15.3,15.9c-2.1,6.4-3,15.6-2.8,27.6c0.3,9.4,1.1,16.6,2.6,21.5c2.9,9.7,8.6,13.3,17.2,10.8l5.4-1.6
		C301.9,524.9,307,519.6,309.7,511.2z M294.8,473.5c0.8,2.7,1.3,7.7,1.5,14.9c0.2,7.8-0.1,13.3-0.9,16.5c-0.7,2.7-2,4.5-3.9,5.4
		c-2.1,0.2-3.6-1-4.4-3.8s-1.3-7.7-1.6-14.9c-0.1-7.9,0.2-13.4,1-16.5c0.7-2.7,2-4.5,3.9-5.4C292.5,469.5,294,470.8,294.8,473.5z"/>
	<path d="M374.8,451.3l0.4,15.3c0.7,28.2-7,44.7-23.2,49.4l-5.4,1.6c-11.4,3.4-19-1.2-22.7-13.6c-1.5-5.3-2.4-12.4-2.7-21.5
		c-0.3-10.2-0.3-15.3-0.3-15.3l-0.4-15.3c-0.1-4.5,1.2-8.5,4-12.1c2.5-3.2,5.6-5.3,9.3-6.4c2.9-0.9,5.7-0.8,8.1,0.3
		c2.5,1.1,4.1,3.1,5,6.1c0.3,1,0.5,2.1,0.5,3.4c0.1-4.4,1.5-8.3,4.2-11.7c2.4-3,5.4-5,8.9-6c2.9-0.9,5.7-0.8,8.2,0.3
		c2.5,1.1,4.2,3.1,5.1,6.1c0.4,1.2,0.6,2.6,0.6,4C374.7,445.9,374.9,450.9,374.8,451.3z M367,494.6c2.2-6.4,3.1-15.5,2.8-27.2
		c-0.2-9.5-0.3-14.4-0.4-14.9l-0.4-14.8c0-0.9-0.2-1.8-0.4-2.5c-1.1-3.7-3.7-5-7.9-3.8c-2.2,0.7-4.1,1.9-5.5,3.8
		c-1.6,2.1-2.4,4.5-2.3,7.3c0.2,9,0.4,13.9,0.4,14.8l0.3,14.8c0.2,7.6-0.1,13-1,16.1c-0.6,2.6-1.9,4.4-3.9,5.2
		c-2.1,0.2-3.6-1.1-4.4-3.9c-0.8-2.7-1.3-7.5-1.6-14.3c-0.2-9.9-0.3-14.8-0.2-14.8l-0.3-14.8c-0.1-0.9-0.2-1.7-0.4-2.5
		c-1.1-3.7-3.7-5-7.9-3.8c-2.2,0.6-4,1.9-5.5,3.7c-1.6,2.1-2.5,4.6-2.4,7.3l0.4,14.8l0.2,14.9c0.2,9.1,1.1,16.1,2.5,21
		c2.9,9.7,8.6,13.3,17.2,10.8l5.4-1.6C359.2,508,364.3,502.8,367,494.6z"/>
	<path d="M431.3,463.4c1.2,4,1.8,8.7,1.9,14.1c0.1,4.5-1.1,8.5-3.8,12c-2.5,3.2-5.6,5.3-9.3,6.4c-3,0.9-5.7,0.8-8.2-0.3
		c-2.5-1.1-4.2-3.1-5.1-6c-0.4-1.3-0.6-2.7-0.6-4.2c0.1,4.5-1.1,8.5-3.8,12c-2.5,3.2-5.6,5.3-9.3,6.4c-3,0.9-5.7,0.8-8.2-0.3
		c-2.5-1.1-4.2-3.1-5.1-6c-0.4-1.3-0.6-2.7-0.6-4.2l-1.2-49.5c-0.1-5.7,1.4-11.2,4.5-16.6c3.8-6.6,9.4-11,16.6-13.1l8.1-2.4
		c5.7-1.7,10.5-1.4,14.6,0.9c4,2.3,6.9,6.3,8.6,12.2c0.9,3,1.4,6.3,1.7,10.1c0.5,8.7-0.4,16.4-2.8,23.1
		C430,459.7,430.7,461.5,431.3,463.4z M412,486.3c1.1,3.7,3.8,5,8,3.7c2.2-0.6,4-1.9,5.6-3.9c1.6-2,2.3-4.3,2.2-7
		c-0.1-5-0.6-9.3-1.7-12.9c-0.6-1.9-1.3-3.6-2.2-5.1c-0.4-0.8-0.4-1.7-0.1-2.7c2.1-5.4,3.1-10.6,3-15.7l-0.2-5.8
		c0-3.3-0.4-6.3-1.2-9c-2.8-9.6-8.8-13-18-10.3l-8.1,2.4c-10.8,4-16.1,11.5-15.9,22.3l1.2,49.5c0,0.9,0.2,1.8,0.4,2.5
		c1.1,3.7,3.8,5,8,3.7c2.1-0.6,4-1.9,5.6-3.9c1.6-2,2.3-4.3,2.2-7.1l-0.1-9.6c-0.1-1.4,0.8-2.3,2.6-2.8c2.4-0.7,4-1,4.8-0.8
		c1.3,0.2,2.2,1.2,2.8,3.1c0.5,1.6,0.8,3.9,0.9,7C411.6,484.7,411.8,485.6,412,486.3z M400.1,455.8c0,1.4,0.9,1.8,2.7,1.3
		c3-0.9,5-1.9,5.9-3c1.4-1.8,2.1-5,2-9.6c0-1.9-0.2-3.6-0.6-5c-0.9-3.2-2.6-4.4-5-3.7c-1.4,0.4-2.6,1.4-3.7,2.9
		c-1.1,1.5-1.6,3.1-1.6,4.6L400.1,455.8z"/>
	<path d="M476.4,438.5c3-0.9,5.7-0.8,8.2,0.3c2.5,1.1,4.2,3.2,5.1,6.2c0.4,1.2,0.6,2.5,0.6,3.9c0.2,5.6-1.5,11.5-4.9,17.7
		c-4.4,8-10.7,13.2-18.8,15.6l-5.4,1.6c-11.4,3.4-19-1.2-22.7-13.6c-1.5-5.3-2.5-12.9-2.7-22.9c-0.2-11.7,0.6-20.9,2.4-27.7
		c3.4-12.3,10.4-20.1,20.9-23.2l5.4-1.6c6.5-1.9,12.1-1.3,16.5,1.9c3.5,2.6,6,6.3,7.4,11.3c0.6,2.1,0.9,4,1,5.8
		c0.1,4.4-1.2,8.4-3.9,11.8c-2.6,3.4-5.8,5.6-9.5,6.7c-2.8,0.8-5.4,0.7-7.7-0.3c-2.3-1-4-3-5.1-5.9c-0.4,2.8-0.6,7.2-0.4,13.1
		c0.2,6,0.5,10.2,1.1,12.7C465.8,444.9,470,440.3,476.4,438.5z M481.8,462.8c2.2-4.6,3.2-8.7,3.1-12.3c0-0.9-0.2-1.8-0.4-2.5
		c-1.1-3.7-3.7-5-7.9-3.8c-2.2,0.6-4,1.9-5.5,3.7c-1.6,2.1-2.5,4.6-2.4,7.3c0.1,1.8-1.4,3.2-4.5,4.3c-2.6,0.5-4.3-0.7-5.2-3.7
		c-0.8-2.7-1.3-7.7-1.6-14.9c-0.2-8.3,0.2-14.1,1.1-17.3c0.8-2.5,2.3-4.2,4.6-5c2.7-0.6,4.2-0.4,4.6,0.8c0.1,0.3,0.2,0.8,0.2,1.5
		c0.1,0.7,0.2,1.3,0.3,1.8c1.1,3.8,3.8,5.1,7.9,3.8c2.2-0.6,4-1.9,5.6-3.9c1.6-2,2.3-4.3,2.3-7.1c0-1.2-0.3-2.6-0.8-4.2
		c-2.9-9.9-9.1-13.4-18.6-10.6l-5.4,1.6c-7.4,2.2-12.5,7.5-15.3,15.9c-2.1,6.4-3,15.6-2.8,27.6c0.3,9.4,1.1,16.6,2.6,21.5
		c2.9,9.7,8.6,13.3,17.2,10.8l5.4-1.6C473.4,474.4,478.5,469.9,481.8,462.8z"/>
	<path d="M529,434.6c3.4-1,6.2-0.9,8.5,0.4c2.3,1.3,3.8,3.3,4.6,6.1c1.2,4.2,0.8,8.5-1.4,12.9c-2.3,4.9-6,8.1-11,9.6l-10.8,3.2
		c-11.4,3.4-19-1.2-22.6-13.6c-1.5-5.2-2.5-12.8-2.7-22.8c-0.2-11.6,0.6-20.8,2.4-27.6c3.4-12.3,10.4-20,20.9-23.1l10.8-3.2
		c3.4-1,6.2-0.8,8.5,0.4c2.3,1.3,3.8,3.3,4.6,6.1c1.2,4.2,0.8,8.5-1.3,12.9c-2.3,4.9-6,8.1-11,9.6c3.4-1,6.2-0.9,8.5,0.4
		c2.3,1.3,3.8,3.3,4.6,6.1c1.2,4.2,0.8,8.5-1.4,12.9C537.7,429.9,534,433.1,529,434.6z M529.4,457.8c3-0.9,5.2-2.7,6.6-5.6
		c1.4-2.8,1.7-5.5,0.9-8c-1.1-3.8-3.7-5.1-7.8-3.9l-5.4,1.6c-2.1,0.6-3.5,0.8-4.4,0.7c-1.3-0.2-2.3-1.4-2.9-3.4
		c-0.4-1.3-0.7-3-0.8-5.3l0-0.2c0-0.7,0.4-1.2,1.2-1.5l11.9-3.5c3-0.9,5.2-2.7,6.6-5.6c1.4-2.8,1.7-5.5,0.9-8
		c-1.1-3.8-3.7-5.1-7.8-3.9l-12.1,3.6c-0.8,0.2-1.2-0.1-1.2-0.8l0-0.2c0.1-4.7,0.8-7.9,2.2-9.7c0.9-1.1,2.7-2.1,5.4-2.9l5.3-1.6
		c3-0.9,5.2-2.7,6.6-5.5c1.4-2.8,1.7-5.5,0.9-8c-1.1-3.8-3.7-5.1-7.8-3.9l-10.8,3.2c-7.4,2.2-12.5,7.5-15.3,15.9
		c-2.1,6.4-3.1,15.6-2.8,27.5c0.2,9.4,1.1,16.5,2.6,21.5c2.9,9.7,8.6,13.3,17.3,10.7L529.4,457.8z"/>
	<path d="M598,405.2c2.5,8.4,1.7,17.2-2.2,26.2c-4.2,9.8-10.8,16-19.6,18.6l-5.4,1.6c-6.5,1.9-11.9,1.8-16.4-0.2
		c-3.9-1.8-6.5-4.8-7.7-9c-1.1-3.7-0.9-7.6,0.8-11.6c1.6-4,4.4-7.1,8.3-9.5c-4.3-2.4-7.3-6.5-9-12.1c-2.5-8.5-1.8-17.3,2.1-26.3
		c4.2-9.8,10.7-16,19.7-18.6l5.4-1.6c6.5-1.9,11.9-1.8,16.4,0.2c3.9,1.8,6.4,4.8,7.7,9c1.1,3.7,0.9,7.6-0.6,11.4
		c-1.7,4.1-4.5,7.3-8.4,9.6C593.3,395.4,596.3,399.5,598,405.2z M591.3,429.2c2.9-7.3,3.4-14.4,1.4-21.2c-1.2-4.2-3.4-7.3-6.4-9.3
		c-3-2-6.8-2.5-11.3-1.2c-2.7,0.8-4.4,1.1-5.3,0.8c-1.4-0.4-2.4-1.8-2.9-4.3c0.4-2.7,1.2-4.6,2.4-5.8c0.9-0.8,2.4-1.5,4.6-2.2
		c2.3-0.7,4.2-0.2,5.7,1.3c1.5,1.5,3.5,2,5.8,1.3c3-0.9,5.2-2.7,6.5-5.5c1.3-2.8,1.6-5.6,0.8-8.4c-0.9-3-2.8-5.2-5.8-6.4
		c-3.4-1.4-7.7-1.4-12.9,0.1l-5.4,1.6c-7.1,2.1-12.3,7.1-15.4,15c-2.9,7.3-3.4,14.4-1.4,21.2c1.2,4.2,3.3,7.3,6.2,9.2
		c3.1,2.1,6.9,2.6,11.4,1.3c2.7-0.8,4.4-1.1,5.3-0.8c1.4,0.4,2.4,1.8,2.9,4.3c-0.4,2.7-1.2,4.6-2.4,5.8c-0.9,0.8-2.5,1.6-5,2.3
		c-2.2,0.7-4,0.2-5.5-1.4s-3.3-2-5.8-1.3c-3,0.9-5.2,2.7-6.5,5.5c-1.3,2.8-1.6,5.6-0.8,8.4c0.9,3,2.8,5.1,5.8,6.4
		c3.4,1.4,7.7,1.4,12.9-0.1l5.4-1.6C583,442.1,588.2,437.1,591.3,429.2z"/>
</g>
</svg>
